<svg xmlns="http://www.w3.org/2000/svg" width="467.316" height="100.827"><path d="m13230.8 31599.5-68.4-68.4-273.5 273.5 273.5 273.5 68.4-68.4" style="fill:none;stroke:#ffd58c;stroke-width:40;stroke-linecap:butt;stroke-linejoin:miter;stroke-miterlimit:10;stroke-dasharray:none;stroke-opacity:1" transform="matrix(.13333 0 0 -.13333 -1714.749 4291.027)"/><path d="m13124.3 31558 76.2 76.2M13124.3 32051.2l76.2-76.2M16101.8 31558l-76.2 76.2M16101.8 32051.2l-76.2-76.2" style="fill:none;stroke:#ffd58c;stroke-width:20;stroke-linecap:butt;stroke-linejoin:miter;stroke-miterlimit:10;stroke-dasharray:none;stroke-opacity:1" transform="matrix(.13333 0 0 -.13333 -1714.749 4291.027)"/><path d="m15995.3 32009.7 68.4 68.4 273.5-273.5-273.5-273.5-68.4 68.4" style="fill:none;stroke:#ffd58c;stroke-width:40;stroke-linecap:butt;stroke-linejoin:miter;stroke-miterlimit:10;stroke-dasharray:none;stroke-opacity:1" transform="matrix(.13333 0 0 -.13333 -1714.749 4291.027)"/><path d="m16200.5 31804.6-287.4 287.4v70.7h-2600v-70.7l-287.4-287.4 287.4-287.4v-70.7h2600v70.7z" style="fill:none;stroke:#ffd58c;stroke-width:40;stroke-linecap:butt;stroke-linejoin:miter;stroke-miterlimit:10;stroke-dasharray:none;stroke-opacity:1" transform="matrix(.13333 0 0 -.13333 -1714.749 4291.027)"/></svg>