<svg width="733.853" height="528.147" xmlns="http://www.w3.org/2000/svg"><path d="M25875.6 29322.5h-4677.5c-107.7 107.7-168 168.1-275.7 275.8V32733c107.6 107.7 168 168.1 275.7 275.7h4677.5c107.7-107.6 168-168 275.7-275.7v-3134.7c-107.7-107.7-168-168.1-275.7-275.8z" style="fill:none;stroke:#ffd58c;stroke-width:40;stroke-linecap:butt;stroke-linejoin:miter;stroke-miterlimit:10;stroke-dasharray:none;stroke-opacity:1" transform="matrix(.13333 0 0 -.13333 -2771.32 4419.493)"/><path d="m20922.4 31364.5-81.7 81.7v587.2" style="fill:none;stroke:#ffd58c;stroke-width:20;stroke-linecap:butt;stroke-linejoin:miter;stroke-miterlimit:10;stroke-dasharray:none;stroke-opacity:1" transform="matrix(.13333 0 0 -.13333 -2771.32 4419.493)"/><path d="m21944.8 33008.7-117.5 117.5h-701.9c-125.2-125.1-195.3-195.3-320.5-320.4v-736.6l117.5-117.5" style="fill:none;stroke:#ffd58c;stroke-width:40;stroke-linecap:butt;stroke-linejoin:miter;stroke-miterlimit:10;stroke-dasharray:none;stroke-opacity:1" transform="matrix(.13333 0 0 -.13333 -2771.32 4419.493)"/><path d="m22532 33008.7-81.7 81.7h-587.2M26151.3 31364.5l81.7 81.7v587.2" style="fill:none;stroke:#ffd58c;stroke-width:20;stroke-linecap:butt;stroke-linejoin:miter;stroke-miterlimit:10;stroke-dasharray:none;stroke-opacity:1" transform="matrix(.13333 0 0 -.13333 -2771.32 4419.493)"/><path d="m25129 33008.7 117.4 117.5h701.9c125.2-125.1 195.3-195.3 320.5-320.4v-736.6l-117.5-117.5" style="fill:none;stroke:#ffd58c;stroke-width:40;stroke-linecap:butt;stroke-linejoin:miter;stroke-miterlimit:10;stroke-dasharray:none;stroke-opacity:1" transform="matrix(.13333 0 0 -.13333 -2771.32 4419.493)"/><path d="m24541.7 33008.7 81.7 81.7h587.3M20922.4 30966.8l-81.7-81.7v-587.3" style="fill:none;stroke:#ffd58c;stroke-width:20;stroke-linecap:butt;stroke-linejoin:miter;stroke-miterlimit:10;stroke-dasharray:none;stroke-opacity:1" transform="matrix(.13333 0 0 -.13333 -2771.32 4419.493)"/><path d="m21944.8 29322.5-117.5-117.4h-701.9c-125.2 125.1-195.3 195.3-320.5 320.4v736.6l117.5 117.4" style="fill:none;stroke:#ffd58c;stroke-width:40;stroke-linecap:butt;stroke-linejoin:miter;stroke-miterlimit:10;stroke-dasharray:none;stroke-opacity:1" transform="matrix(.13333 0 0 -.13333 -2771.32 4419.493)"/><path d="m22532 29322.5-81.7-81.7h-587.2M26151.3 30966.8l81.7-81.7v-587.3" style="fill:none;stroke:#ffd58c;stroke-width:20;stroke-linecap:butt;stroke-linejoin:miter;stroke-miterlimit:10;stroke-dasharray:none;stroke-opacity:1" transform="matrix(.13333 0 0 -.13333 -2771.32 4419.493)"/><path d="m25129 29322.5 117.4-117.4h701.9c125.2 125.1 195.3 195.3 320.5 320.4v736.6l-117.5 117.4" style="fill:none;stroke:#ffd58c;stroke-width:40;stroke-linecap:butt;stroke-linejoin:miter;stroke-miterlimit:10;stroke-dasharray:none;stroke-opacity:1" transform="matrix(.13333 0 0 -.13333 -2771.32 4419.493)"/><path d="m24541.7 29322.5 81.7-81.7h587.3M21820 29320.9l-108.5-108.5M25255.7 29320.9l108.5-108.5M21820 33017.8l-108.5 108.6M25255.7 33017.8l108.5 108.6" style="fill:none;stroke:#ffd58c;stroke-width:20;stroke-linecap:butt;stroke-linejoin:miter;stroke-miterlimit:10;stroke-dasharray:none;stroke-opacity:1" transform="matrix(.13333 0 0 -.13333 -2771.32 4419.493)"/></svg>