<svg width="467.321" height="144.131" xmlns="http://www.w3.org/2000/svg"><path d="m8206.26 31531.1-273.5 273.5 273.5 273.5" style="fill:none;stroke:#ffd58c;stroke-width:40;stroke-linecap:butt;stroke-linejoin:miter;stroke-miterlimit:10;stroke-dasharray:none;stroke-opacity:1" transform="matrix(.13333 0 0 -.13333 -1053.93 4312.686)"/><path d="m8273.47 32013.1-111.97 112 205.88 205.9 88.81-88.8h686.66l78.84-78.9 64.68-64.7h370.54M9082.56 32242.2l76.24-76.3M8273.47 31596.1l-111.97-112 205.88-205.8 88.81 88.8h686.66l78.84 78.8 64.68 64.7h370.54M9082.56 31367.1l76.24 76.2M8168.14 31558l76.24 76.2M8333.19 31312.4l130.86 130.9M8168.14 32051.2l76.24-76.2M8333.19 32296.8l130.86-130.9M11145.7 31558l-76.3 76.2M10980.6 31312.4l-130.8 130.9M11145.7 32051.2l-76.3-76.2M10980.6 32296.8l-130.8-130.9" style="fill:none;stroke:#ffd58c;stroke-width:20;stroke-linecap:butt;stroke-linejoin:miter;stroke-miterlimit:10;stroke-dasharray:none;stroke-opacity:1" transform="matrix(.13333 0 0 -.13333 -1053.93 4312.686)"/><path d="m11107.6 31531.1 273.5 273.5-273.5 273.5" style="fill:none;stroke:#ffd58c;stroke-width:40;stroke-linecap:butt;stroke-linejoin:miter;stroke-miterlimit:10;stroke-dasharray:none;stroke-opacity:1" transform="matrix(.13333 0 0 -.13333 -1053.93 4312.686)"/><path d="m11040.4 32013.1 111.9 112-205.9 205.9-88.8-88.8H10171l-78.9-78.9-64.6-64.7h-370.59" style="fill:none;stroke:#ffd58c;stroke-width:20;stroke-linecap:butt;stroke-linejoin:miter;stroke-miterlimit:10;stroke-dasharray:none;stroke-opacity:1" transform="matrix(.13333 0 0 -.13333 -1053.93 4312.686)"/><path d="m11244.3 31804.6-287.4 287.4v70.7H8356.91v-70.7l-287.4-287.4 287.4-287.4v-70.7h2599.99v70.7z" style="fill:none;stroke:#ffd58c;stroke-width:40;stroke-linecap:butt;stroke-linejoin:miter;stroke-miterlimit:10;stroke-dasharray:none;stroke-opacity:1" transform="matrix(.13333 0 0 -.13333 -1053.93 4312.686)"/><path d="m10231.3 32242.2-76.3-76.3M11040.4 31596.1l111.9-112-205.9-205.8-88.8 88.8H10171l-78.9 78.8-64.6 64.7h-370.59M10231.3 31367.1l-76.3 76.2" style="fill:none;stroke:#ffd58c;stroke-width:20;stroke-linecap:butt;stroke-linejoin:miter;stroke-miterlimit:10;stroke-dasharray:none;stroke-opacity:1" transform="matrix(.13333 0 0 -.13333 -1053.93 4312.686)"/></svg>